<svg width="15" height="15" viewBox="0 0 15 15" fill="none" xmlns="http://www.w3.org/2000/svg">
<rect width="15" height="15" rx="2" fill="white" fill-opacity="0.1"/>
<path d="M7.99856 7.51451L9.95245 5.54701C10.0159 5.48317 10.0159 5.3729 9.95245 5.30905L9.69308 5.04788C9.62968 4.98404 9.52017 4.98404 9.45677 5.04788L7.49712 7.01538H7.49135L5.54323 5.04788C5.47983 4.98404 5.37032 4.98404 5.30692 5.04788L5.04755 5.30905C4.98415 5.3729 4.98415 5.48317 5.04755 5.54701L7.00144 7.51451V7.52031L5.0879 9.45299C5.0245 9.51683 5.0245 9.6271 5.0879 9.69095L5.34726 9.95212C5.41066 10.016 5.52017 10.016 5.58357 9.95212L7.50288 8.01944H7.50865L9.42795 9.95212C9.49135 10.016 9.60086 10.016 9.66427 9.95212L9.92363 9.69095C9.98703 9.6271 9.98703 9.51683 9.92363 9.45299L7.99856 7.51451C7.9928 7.52031 7.9928 7.52031 7.99856 7.51451Z" fill="#EFCE6F"/>
</svg>
