<svg width="24" height="16" viewBox="0 0 24 16" fill="none" xmlns="http://www.w3.org/2000/svg">
<path d="M22 0.0100098H2C1.17157 0.0100098 0.5 0.681583 0.5 1.51001V13.51C0.5 14.3384 1.17157 15.01 2 15.01H22C22.8284 15.01 23.5 14.3384 23.5 13.51V1.51001C23.5 0.681583 22.8284 0.0100098 22 0.0100098Z" fill="white" fill-opacity="0.1"/>
<path d="M4.87842 10.73V3.84998H6.25842V9.47998H7.99842V10.73H4.87842ZM8.67748 10.73V3.84998H10.0475V10.73H8.67748ZM11.9991 10.73L10.6791 3.84998H12.0791L12.9791 9.28998H13.0691L13.9391 3.84998H15.3191L13.9991 10.73H11.9991ZM15.9526 10.73V3.84998H19.2926V5.05998H17.3326V6.64998H19.0226V7.85998H17.3326V9.51998H19.2926V10.73H15.9526Z" fill="white"/>
</svg>
