<svg width="156" height="41" viewBox="0 0 156 41" fill="none" xmlns="http://www.w3.org/2000/svg">
<path d="M64.27 16.17C63.6467 16.17 63.0573 16.1133 62.502 16C61.9467 15.8753 61.465 15.728 61.057 15.558C60.649 15.388 60.3487 15.2293 60.156 15.082V12.039C60.7 12.345 61.3857 12.634 62.213 12.906C63.0403 13.1667 63.9583 13.297 64.967 13.297C65.375 13.297 65.6753 13.246 65.868 13.144C66.072 13.0307 66.174 12.838 66.174 12.566C66.174 12.2713 65.9473 12.0277 65.494 11.835C65.052 11.631 64.3493 11.3817 63.386 11.087C62.638 10.849 61.9977 10.5883 61.465 10.305C60.9437 10.0103 60.5413 9.64767 60.258 9.217C59.986 8.775 59.85 8.214 59.85 7.534C59.85 6.83133 60.0313 6.19667 60.394 5.63C60.7567 5.06333 61.3233 4.61567 62.094 4.287C62.8647 3.95833 63.8507 3.794 65.052 3.794C65.4147 3.794 65.8 3.811 66.208 3.845C66.6273 3.86767 66.9617 3.90167 67.211 3.947L69.132 5.358L68.469 7.432L64.44 6.327C63.9753 6.327 63.6297 6.42333 63.403 6.616C63.1877 6.80867 63.08 7.041 63.08 7.313C63.08 7.64167 63.267 7.90233 63.641 8.095C64.015 8.28767 64.5533 8.48033 65.256 8.673C66.3667 8.979 67.228 9.319 67.84 9.693C68.452 10.067 68.8827 10.492 69.132 10.968C69.3813 11.4327 69.506 11.9597 69.506 12.549C69.506 13.637 69.0697 14.5153 68.197 15.184C67.3243 15.8413 66.0153 16.17 64.27 16.17ZM76.9045 16V6.701L76.5645 4.984L76.9045 3.964H82.3445C83.1718 3.964 83.9141 4.09433 84.5715 4.355C85.2401 4.60433 85.7671 5.035 86.1525 5.647C86.5491 6.24767 86.7475 7.08067 86.7475 8.146C86.7475 9.21133 86.5378 10.0557 86.1185 10.679C85.6991 11.291 85.1155 11.7273 84.3675 11.988C83.6308 12.2487 82.7865 12.379 81.8345 12.379H79.9645V13.263L80.1345 14.963L79.9645 16H76.9045ZM79.9645 9.71H81.6305C82.2198 9.71 82.6901 9.60233 83.0415 9.387C83.3928 9.16033 83.5685 8.74667 83.5685 8.146C83.5685 7.72667 83.4835 7.415 83.3135 7.211C83.1435 6.99567 82.9055 6.854 82.5995 6.786C82.3048 6.718 81.9591 6.684 81.5625 6.684H79.7945L79.9645 9.71ZM99.3952 16.17C98.6699 16.17 97.9615 16.085 97.2702 15.915C96.5902 15.7337 95.9725 15.4163 95.4172 14.963C94.8732 14.5097 94.4369 13.8807 94.1082 13.076C93.7909 12.2713 93.6322 11.24 93.6322 9.982C93.6322 8.724 93.7909 7.69267 94.1082 6.888C94.4369 6.08333 94.8732 5.45433 95.4172 5.001C95.9725 4.54767 96.5902 4.236 97.2702 4.066C97.9615 3.88467 98.6699 3.794 99.3952 3.794C100.121 3.794 100.823 3.88467 101.503 4.066C102.195 4.24733 102.812 4.56467 103.356 5.018C103.912 5.47133 104.348 6.10033 104.665 6.905C104.994 7.70967 105.158 8.73533 105.158 9.982C105.158 11.2287 104.994 12.2543 104.665 13.059C104.348 13.8637 103.912 14.4927 103.356 14.946C102.812 15.3993 102.195 15.7167 101.503 15.898C100.823 16.0793 100.121 16.17 99.3952 16.17ZM99.3952 13.28C100.234 13.28 100.869 13.0307 101.299 12.532C101.73 12.0333 101.945 11.1833 101.945 9.982C101.945 8.78067 101.73 7.93067 101.299 7.432C100.869 6.93333 100.234 6.684 99.3952 6.684C98.5679 6.684 97.9389 6.939 97.5082 7.449C97.0775 7.959 96.8622 8.80333 96.8622 9.982C96.8622 11.1607 97.0775 12.005 97.5082 12.515C97.9389 13.025 98.5679 13.28 99.3952 13.28ZM112.55 16V6.701L112.21 4.984L112.55 3.964H117.99C118.817 3.964 119.56 4.09433 120.217 4.355C120.886 4.60433 121.413 5.035 121.798 5.647C122.195 6.24767 122.393 7.08067 122.393 8.146C122.393 9.10933 122.217 9.89133 121.866 10.492C121.515 11.0813 121.027 11.5233 120.404 11.818L120.574 12.005L122.257 14.113L123.226 14.98V16H119.401L117.021 12.379H115.61V13.263L115.78 14.963L115.61 16H112.55ZM115.61 9.71H117.276C117.865 9.71 118.336 9.60233 118.687 9.387C119.038 9.16033 119.214 8.74667 119.214 8.146C119.214 7.72667 119.129 7.415 118.959 7.211C118.789 6.99567 118.551 6.854 118.245 6.786C117.95 6.718 117.605 6.684 117.208 6.684H115.44L115.61 9.71ZM132.487 16V6.684L129.087 6.854V3.964H139.032V6.854L135.547 6.684V13.28L135.734 14.98L135.547 16H132.487ZM149.997 16.17C149.374 16.17 148.784 16.1133 148.229 16C147.674 15.8753 147.192 15.728 146.784 15.558C146.376 15.388 146.076 15.2293 145.883 15.082V12.039C146.427 12.345 147.113 12.634 147.94 12.906C148.767 13.1667 149.685 13.297 150.694 13.297C151.102 13.297 151.402 13.246 151.595 13.144C151.799 13.0307 151.901 12.838 151.901 12.566C151.901 12.2713 151.674 12.0277 151.221 11.835C150.779 11.631 150.076 11.3817 149.113 11.087C148.365 10.849 147.725 10.5883 147.192 10.305C146.671 10.0103 146.268 9.64767 145.985 9.217C145.713 8.775 145.577 8.214 145.577 7.534C145.577 6.83133 145.758 6.19667 146.121 5.63C146.484 5.06333 147.05 4.61567 147.821 4.287C148.592 3.95833 149.578 3.794 150.779 3.794C151.142 3.794 151.527 3.811 151.935 3.845C152.354 3.86767 152.689 3.90167 152.938 3.947L154.859 5.358L154.196 7.432L150.167 6.327C149.702 6.327 149.357 6.42333 149.13 6.616C148.915 6.80867 148.807 7.041 148.807 7.313C148.807 7.64167 148.994 7.90233 149.368 8.095C149.742 8.28767 150.28 8.48033 150.983 8.673C152.094 8.979 152.955 9.319 153.567 9.693C154.179 10.067 154.61 10.492 154.859 10.968C155.108 11.4327 155.233 11.9597 155.233 12.549C155.233 13.637 154.797 14.5153 153.924 15.184C153.051 15.8413 151.742 16.17 149.997 16.17ZM60.36 36V26.684L60.02 24.984L60.36 23.964H66.14C67.4207 23.964 68.4463 24.202 69.217 24.678C69.9877 25.154 70.373 25.9247 70.373 26.99C70.373 27.5227 70.2823 28.0043 70.101 28.435C69.9197 28.8657 69.659 29.2 69.319 29.438C70.0897 29.6873 70.6563 30.067 71.019 30.577C71.3817 31.087 71.563 31.6933 71.563 32.396C71.563 33.6313 71.2003 34.5437 70.475 35.133C69.761 35.711 68.7127 36 67.33 36H60.36ZM63.42 28.639H66.106C66.4913 28.639 66.769 28.5483 66.939 28.367C67.109 28.1857 67.194 27.9477 67.194 27.653C67.194 27.279 67.0693 27.024 66.82 26.888C66.5707 26.752 66.276 26.684 65.936 26.684H63.42V28.639ZM63.42 33.28H66.82C67.228 33.28 67.5283 33.229 67.721 33.127C67.925 33.025 68.0553 32.8947 68.112 32.736C68.18 32.5773 68.214 32.413 68.214 32.243C68.214 31.9483 68.1063 31.699 67.891 31.495C67.687 31.2797 67.3867 31.172 66.99 31.172H63.42V33.28ZM83.8634 36.17C83.1381 36.17 82.4298 36.085 81.7384 35.915C81.0584 35.7337 80.4408 35.4163 79.8854 34.963C79.3414 34.5097 78.9051 33.8807 78.5764 33.076C78.2591 32.2713 78.1004 31.24 78.1004 29.982C78.1004 28.724 78.2591 27.6927 78.5764 26.888C78.9051 26.0833 79.3414 25.4543 79.8854 25.001C80.4408 24.5477 81.0584 24.236 81.7384 24.066C82.4298 23.8847 83.1381 23.794 83.8634 23.794C84.5888 23.794 85.2914 23.8847 85.9714 24.066C86.6628 24.2473 87.2804 24.5647 87.8244 25.018C88.3798 25.4713 88.8161 26.1003 89.1334 26.905C89.4621 27.7097 89.6264 28.7353 89.6264 29.982C89.6264 31.2287 89.4621 32.2543 89.1334 33.059C88.8161 33.8637 88.3798 34.4927 87.8244 34.946C87.2804 35.3993 86.6628 35.7167 85.9714 35.898C85.2914 36.0793 84.5888 36.17 83.8634 36.17ZM83.8634 33.28C84.7021 33.28 85.3368 33.0307 85.7674 32.532C86.1981 32.0333 86.4134 31.1833 86.4134 29.982C86.4134 28.7807 86.1981 27.9307 85.7674 27.432C85.3368 26.9333 84.7021 26.684 83.8634 26.684C83.0361 26.684 82.4071 26.939 81.9764 27.449C81.5458 27.959 81.3304 28.8033 81.3304 29.982C81.3304 31.1607 81.5458 32.005 81.9764 32.515C82.4071 33.025 83.0361 33.28 83.8634 33.28ZM102.101 36.17C101.376 36.17 100.668 36.085 99.9762 35.915C99.2962 35.7337 98.6786 35.4163 98.1232 34.963C97.5792 34.5097 97.1429 33.8807 96.8142 33.076C96.4969 32.2713 96.3382 31.24 96.3382 29.982C96.3382 28.724 96.4969 27.6927 96.8142 26.888C97.1429 26.0833 97.5792 25.4543 98.1232 25.001C98.6786 24.5477 99.2962 24.236 99.9762 24.066C100.668 23.8847 101.376 23.794 102.101 23.794C102.827 23.794 103.529 23.8847 104.209 24.066C104.901 24.2473 105.518 24.5647 106.062 25.018C106.618 25.4713 107.054 26.1003 107.371 26.905C107.7 27.7097 107.864 28.7353 107.864 29.982C107.864 31.2287 107.7 32.2543 107.371 33.059C107.054 33.8637 106.618 34.4927 106.062 34.946C105.518 35.3993 104.901 35.7167 104.209 35.898C103.529 36.0793 102.827 36.17 102.101 36.17ZM102.101 33.28C102.94 33.28 103.575 33.0307 104.005 32.532C104.436 32.0333 104.651 31.1833 104.651 29.982C104.651 28.7807 104.436 27.9307 104.005 27.432C103.575 26.9333 102.94 26.684 102.101 26.684C101.274 26.684 100.645 26.939 100.214 27.449C99.7836 27.959 99.5682 28.8033 99.5682 29.982C99.5682 31.1607 99.7836 32.005 100.214 32.515C100.645 33.025 101.274 33.28 102.101 33.28ZM115.256 36V26.752L114.916 25.035L115.256 23.964H118.316V26.004L118.146 29.047H119.166L121.903 23.964H125.286V24.984L121.92 29.761L124.776 33.297L126.459 34.98V36H122.634L119.54 31.495L118.316 31.665V33.96L118.486 34.98L118.316 36H115.256Z" fill="white"/>
<rect width="41" height="41" rx="10" fill="white"/>
<path d="M20.5 2.16667C23.4455 2.16667 25.8333 4.55448 25.8333 7.5C25.8333 10.4455 23.4455 12.8333 20.5 12.8333C17.5545 12.8333 15.1667 10.4455 15.1667 7.5C15.1667 4.55448 17.5545 2.16667 20.5 2.16667ZM7 21L7 22C6.59554 22 6.2309 21.7564 6.07612 21.3827C5.92134 21.009 6.00689 20.5789 6.29289 20.2929L7 21ZM34.5 21L34.5 20C34.9045 20 35.2691 20.2436 35.4239 20.6173C35.5787 20.991 35.4931 21.4211 35.2071 21.7071L34.5 21ZM20.5 29.6667C23.4455 29.6667 25.8333 32.0545 25.8333 35C25.8333 37.9455 23.4455 40.3333 20.5 40.3333C17.5545 40.3333 15.1667 37.9455 15.1667 35C15.1667 32.0545 17.5545 29.6667 20.5 29.6667ZM21.2071 8.20711L7.70711 21.7071L6.29289 20.2929L19.7929 6.79289L21.2071 8.20711ZM7 20L34.5 20L34.5 22L7 22L7 20ZM35.2071 21.7071L21.2071 35.7071L19.7929 34.2929L33.7929 20.2929L35.2071 21.7071Z" fill="black"/>
<circle cx="7" cy="21" r="3" fill="black"/>
<circle cx="35" cy="21" r="3" fill="black"/>
</svg>
