<svg width="41" height="41" viewBox="0 0 41 41" fill="none" xmlns="http://www.w3.org/2000/svg">
<rect width="41" height="41" rx="10" fill="white"/>
<path d="M20.5 2.16667C23.4455 2.16667 25.8333 4.55448 25.8333 7.5C25.8333 10.4455 23.4455 12.8333 20.5 12.8333C17.5545 12.8333 15.1667 10.4455 15.1667 7.5C15.1667 4.55448 17.5545 2.16667 20.5 2.16667ZM7 21L7 22C6.59554 22 6.2309 21.7564 6.07612 21.3827C5.92134 21.009 6.00689 20.5789 6.29289 20.2929L7 21ZM34.5 21L34.5 20C34.9045 20 35.2691 20.2436 35.4239 20.6173C35.5787 20.991 35.4931 21.4211 35.2071 21.7071L34.5 21ZM20.5 29.6667C23.4455 29.6667 25.8333 32.0545 25.8333 35C25.8333 37.9455 23.4455 40.3333 20.5 40.3333C17.5545 40.3333 15.1667 37.9455 15.1667 35C15.1667 32.0545 17.5545 29.6667 20.5 29.6667ZM21.2071 8.20711L7.70711 21.7071L6.29289 20.2929L19.7929 6.79289L21.2071 8.20711ZM7 20L34.5 20L34.5 22L7 22L7 20ZM35.2071 21.7071L21.2071 35.7071L19.7929 34.2929L33.7929 20.2929L35.2071 21.7071Z" fill="black"/>
<circle cx="7" cy="21" r="3" fill="black"/>
<circle cx="35" cy="21" r="3" fill="black"/>
</svg>
